<svg viewBox="0 230 2560 1350" xmlns="http://www.w3.org/2000/svg" fill="currentColor">
  <path d="M 0 230 L 420 230 L 1035 972.5 L 690 1148 L 480 999.5 L 90 608 L 300 608 Z"/>
  <path d="M 642.8 901.5 L 963.2 888 L 1497.2 1522.5 L 1426 1576.5 L 1123.4 1576.5 L 180 996 L 482.6 996 Z"/>
  <path d="M 1670 540 L 1634.4 567 L 1456.4 486 L 1545.4 756 L 1278.4 1080 L 993.6 742.5 L 1207.2 229.5 L 1670 229.5 Z"/>
  <path d="M 2233.6 615 L 2465 615 L 2055.6 1015.4 L 2340.4 1015.4 L 1610.6 1477.4 L 1343.6 1169.4 L 2126.8 230 L 2554 230 Z"/>
</svg>
